<svg xmlns="http://www.w3.org/2000/svg" width="512" height="512" viewBox="-96 1 479 479.998"><g><path fill="red" d="m8.503906 376h16v9.46875c-11.019531 3.898438-17.628906 15.167969-15.652344 26.6875 1.976563 11.519531 11.964844 19.941406 23.652344 19.941406 11.691406 0 21.679688-8.421875 23.65625-19.941406 1.976563-11.519531-4.632812-22.789062-15.65625-26.6875v-9.46875h72v16h-16c-2.273437-.003906-4.441406.964844-5.960937 2.660156-1.515625 1.695313-2.238281 3.957032-1.988281 6.21875l8 72c.445312 4.050782 3.871093 7.121094 7.949218 7.121094h80c4.078125 0 7.503906-3.070312 7.953125-7.121094l8-72c.25-2.261718-.472656-4.523437-1.992187-6.21875-1.515625-1.695312-3.683594-2.664062-5.960938-2.660156h-16v-16h64v9.46875c-11.019531 3.898438-17.628906 15.167969-15.652344 26.6875 1.976563 11.519531 11.964844 19.941406 23.652344 19.941406 11.691406 0 21.679688-8.421875 23.65625-19.941406 1.976563-11.519531-4.632812-22.789062-15.65625-26.6875v-9.46875h24c3.414063 0 6.449219-2.164062 7.5625-5.390625 1.113282-3.226563.058594-6.800781-2.625-8.90625l-8.886718-6.976563c-21.535157-17.792968-38.210938-40.75-48.472657-66.726562h28.421875c3.347656-.003906 6.335938-2.089844 7.496094-5.230469 1.160156-3.136719.246094-6.664062-2.296875-8.84375l-7.886719-6.757812c-24.847656-21.3125-37.480468-46.289063-52.121094-75.203125-1.308593-2.597656-2.742187-5.320313-4.085937-8h18.894531c3.398438.003906 6.429688-2.144532 7.554688-5.351563 1.125-3.203125.101562-6.773437-2.554688-8.894531l-8.648437-6.921875c-20.136719-16.097656-37.664063-35.214844-51.957031-56.671875l-8.394532-12.527344v-10.046875l8.730469 6.3125c3.734375 2.699219 8.78125 2.6875 12.507813-.027343 3.722656-2.714844 5.277343-7.519532 3.851562-11.902344l-6.402344-19.582032 16.753906-12.105468c3.742188-2.707032 5.3125-7.515625 3.886719-11.910156-1.425781-4.394532-5.523437-7.363282-10.144531-7.355469h-20.726562l-6.398438-19.636719c-1.429688-4.378906-5.511719-7.34375-10.117188-7.34375-4.605468 0-8.6875 2.964844-10.117187 7.34375l-6.398437 19.636719h-20.777344c-4.617188-.003907-8.714844 2.972656-10.132813 7.367187-1.421875 4.394532.152344 9.207032 3.902344 11.90625l16.734375 12.097656-6.398438 19.582032c-1.445312 4.382812.101563 9.199218 3.832032 11.921875 3.726562 2.71875 8.785156 2.722656 12.519531.007812l8.894531-6.425781v9.898438l-18.78125 25.0625c-10.078125 13.410156-21.476562 25.773437-34.019531 36.910156l-16.542969 14.707031c-2.488281 2.207031-3.351562 5.730469-2.164062 8.839844 1.191406 3.109375 4.179687 5.15625 7.507812 5.144531h18.875c-1.601562 3.078125-3.242187 6.222656-4.800781 9.253906-14.152344 27.953125-26.402344 52.097656-49.898437 72.503906l-9.445313 8.199219c-2.523437 2.191407-3.421875 5.722657-2.246094 8.851563 1.175781 3.132812 4.171875 5.199218 7.515625 5.191406h27.65625c-9.519531 24.117188-24.507812 45.695312-43.792968 63.03125l-12.980469 10.816406c-2.59375 2.152344-3.558594 5.703125-2.410157 8.871094 1.148438 3.171875 4.15625 5.28125 7.527344 5.28125zm175.066406 32-1.785156 16h-13.28125c-4.417968 0-8 3.578125-8 8 0 4.417969 3.582032 8 8 8h11.503906l-2.703124 24h-65.601563l-2.671875-24h27.472656c4.417969 0 8-3.582031 8-8 0-4.421875-3.582031-8-8-8h-29.277344l-1.785156-16zm-55.066406-16v-16h32v16zm120 24c-4.417968 0-8-3.582031-8-8 0-4.421875 3.582032-8 8-8 4.417969 0 8 3.578125 8 8 0 4.417969-3.582031 8-8 8zm-116.925781-348.746094 3.09375-9.480468c1.085937-3.308594-.097656-6.9375-2.917969-8.976563l-8.050781-5.816406h10c3.464844.003906 6.535156-2.226563 7.609375-5.519531l3.121094-9.597657 3.128906 9.597657c1.070312 3.292968 4.136719 5.519531 7.597656 5.519531h10l-8.0625 5.816406c-2.816406 2.039063-3.992187 5.664063-2.914062 8.96875l3.097656 9.488281-8.167969-5.894531c-2.796875-2.023437-6.578125-2.023437-9.375 0zm-37.21875 100c13.335937-11.84375 25.449219-24.996094 36.160156-39.253906l13.601563-18.136719 3.464844 5.191407c13.089843 19.632812 28.734374 37.4375 46.519531 52.945312h-100.558594zm58.144531 48.746094c0 4.417969-3.582031 8-8 8-4.417968 0-8-3.582031-8-8 0-4.421875 3.582032-8 8-8 4.417969 0 8 3.578125 8 8zm-98.925781 56c21.832031-21.1875 34.238281-45.699219 47.304687-71.523438 2.742188-5.414062 5.519532-10.910156 8.4375-16.476562h27.183594v9.46875c-11.019531 3.898438-17.628906 15.167969-15.652344 26.6875 1.976563 11.519531 11.964844 19.941406 23.652344 19.941406 11.691406 0 21.679688-8.421875 23.65625-19.941406 1.976563-11.519531-4.632812-22.789062-15.65625-26.6875v-9.46875h27.199219c2.675781 5.140625 5.234375 10.207031 7.753906 15.199219 13.246094 26.191406 25.839844 51.078125 48 72.800781zm170.925781 48c0 4.417969-3.582031 8-8 8-4.417968 0-8-3.582031-8-8 0-4.421875 3.582032-8 8-8 4.417969 0 8 3.578125 8 8zm-104 0c0 4.417969-3.582031 8-8 8-4.417968 0-8-3.582031-8-8 0-4.421875 3.582032-8 8-8 4.417969 0 8 3.578125 8 8zm-43.078125-32h27.078125v9.46875c-11.019531 3.898438-17.628906 15.167969-15.652344 26.6875 1.976563 11.519531 11.964844 19.941406 23.652344 19.941406 11.691406 0 21.679688-8.421875 23.65625-19.941406 1.976563-11.519531-4.632812-22.789062-15.65625-26.6875v-9.46875h88v9.46875c-9.671875 3.40625-16.101562 12.59375-15.988281 22.851562.117187 10.253907 6.753906 19.296876 16.503906 22.480469 9.746094 3.183594 20.441407-.195312 26.589844-8.402343 6.621094 9.265624 14.160156 17.839843 22.496094 25.601562h-227.671875c20.902344-20.144531 36.96875-44.761719 46.992187-72zm-44.921875 112c4.417969 0 8 3.578125 8 8 0 4.417969-3.582031 8-8 8-4.417968 0-8-3.582031-8-8 0-4.421875 3.582032-8 8-8zm0 0" class="active-path" data-old_color="#000000" data-original="#000000"/></g></svg>